<?xml version="1.0" encoding="UTF-8"?>
<svg id="Layer_2" data-name="Layer 2" xmlns="http://www.w3.org/2000/svg" viewBox="0 0 1062.16 238.19">
  <defs>
    <style>
      .cls-1 {
        fill: #ff4747;
      }
    </style>
  </defs>
  <g id="Layer_1-2" data-name="Layer 1">
    <g>
      <path class="cls-1" d="m142.91,162.64L47.64,67.36v170.82H0V0h47.64l95.27,95.27v67.36Zm47.64,75.55V0h47.64v238.19h-47.64Z"/>
      <path class="cls-1" d="m327.88,190.55h196.13l-28.28,47.64h-252.7l58.06-95.27h-40.19l28.28-47.64h191.29l-29.03,47.64h-95.27l-28.28,47.64Zm-19.35-142.91L337.56,0h214.37l-29.03,47.64h-214.37Z"/>
      <path class="cls-1" d="m562.34,238.19l-29.03-47.64V0h47.64v190.55h71.46V0h47.64v190.55h71.46V0h47.64v190.55l-29.03,47.64h-227.77Z"/>
      <path class="cls-1" d="m823.98,47.64L853.01,0h209.16v47.64h-238.19Zm29.03,190.55l-29.03-47.64h190.55v-47.64h-161.52l-29.03-47.64h209.16l29.03,47.64v47.64l-29.03,47.64h-180.13Z"/>
    </g>
  </g>
</svg>